<mxfile host="app.diagrams.net" agent="Mozilla/5.0 (Macintosh; Intel Mac OS X 10_15_7) AppleWebKit/537.36 (KHTML, like Gecko) Chrome/129.0.0.0 Safari/537.36" version="24.8.3">
  <diagram id="JS7u867R8M9ZiHvgg1-n" name="Page-1">
    <mxGraphModel dx="1150" dy="824" grid="1" gridSize="10" guides="1" tooltips="1" connect="1" arrows="1" fold="1" page="1" pageScale="1" pageWidth="850" pageHeight="1100" background="none" math="0" shadow="0">
      <root>
        <mxCell id="0" />
        <mxCell id="1" parent="0" />
        <mxCell id="cifkW_QOZoFGIp_55xrW-1" value="Adder" style="shape=stencil(tZXRjoIwEEW/pq+bQsPq6wb1PyqOS2NtSdvV3b93oGCs0I0IJISkc7mHIb1DCcttySsgKS0J25A0TSjFO66vT2tuKyicL164EXwvwSvWGX2Cqzi4liFUCUa4WmVbQr/wmfpieaGVQojQygbKg44wLhR66a+Hta//C1YV8s/gwLRNNtXd68yPbAFqskSnIbPre95OZ6KGvSaL7NQ81ORNJsuxEgsxy/e8OH0b/aMOfVdUO2oDA8JdFlL6AYt9YMXruesJnXzWF/h/moawnVsK9eC+/wxaP5sKWI0FPGWMTvOvx9qz0P+ZTfOzsf7Q/sL+FVLbaHKwHgkPHguDmWs8vcQ2VX+ONIUb);whiteSpace=wrap;html=1;align=right;" parent="1" vertex="1">
          <mxGeometry x="380" y="97.86" width="50" height="100" as="geometry" />
        </mxCell>
        <mxCell id="cifkW_QOZoFGIp_55xrW-8" value="Read&lt;br&gt;register 1&lt;br&gt;&amp;nbsp; &amp;nbsp; &amp;nbsp; &amp;nbsp; &amp;nbsp; &amp;nbsp; &amp;nbsp; &amp;nbsp; &amp;nbsp; &amp;nbsp; &amp;nbsp;RD1&lt;br&gt;Read&lt;br&gt;register 2&lt;br&gt;&amp;nbsp; &amp;nbsp; &amp;nbsp; &amp;nbsp; &amp;nbsp; &amp;nbsp; &amp;nbsp; &amp;nbsp; &amp;nbsp; &amp;nbsp; &amp;nbsp;RD2&lt;br&gt;&lt;br&gt;Write register&lt;br&gt;&lt;br&gt;&amp;nbsp; &amp;nbsp; &amp;nbsp; &amp;nbsp; &amp;nbsp;&lt;br&gt;Write&lt;br&gt;data&lt;br&gt;&lt;div style=&quot;text-align: center;&quot;&gt;&lt;b style=&quot;background-color: initial;&quot;&gt;Registers&lt;/b&gt;&lt;/div&gt;" style="rounded=0;whiteSpace=wrap;html=1;align=left;" parent="1" vertex="1">
          <mxGeometry x="570" y="475" width="100" height="190" as="geometry" />
        </mxCell>
        <mxCell id="cifkW_QOZoFGIp_55xrW-59" style="edgeStyle=orthogonalEdgeStyle;rounded=0;orthogonalLoop=1;jettySize=auto;html=1;exitX=1;exitY=0.5;exitDx=0;exitDy=0;entryX=0;entryY=0.5;entryDx=0;entryDy=0;" parent="1" source="cifkW_QOZoFGIp_55xrW-9" target="cifkW_QOZoFGIp_55xrW-12" edge="1">
          <mxGeometry relative="1" as="geometry">
            <Array as="points">
              <mxPoint x="430" y="520" />
              <mxPoint x="450" y="520" />
              <mxPoint x="450" y="295" />
              <mxPoint x="530" y="295" />
              <mxPoint x="530" y="375" />
            </Array>
          </mxGeometry>
        </mxCell>
        <mxCell id="cifkW_QOZoFGIp_55xrW-60" value="Instruction [6-0]" style="edgeLabel;html=1;align=center;verticalAlign=middle;resizable=0;points=[];" parent="cifkW_QOZoFGIp_55xrW-59" vertex="1" connectable="0">
          <mxGeometry x="0.7471" y="2" relative="1" as="geometry">
            <mxPoint x="-15" y="2" as="offset" />
          </mxGeometry>
        </mxCell>
        <mxCell id="cifkW_QOZoFGIp_55xrW-9" value="Read&lt;br&gt;address&lt;br&gt;&lt;br&gt;Instruction[31-0]&lt;br&gt;&lt;br&gt;&lt;br&gt;&lt;b&gt;Instruction&lt;br&gt;memory&lt;/b&gt;" style="rounded=0;whiteSpace=wrap;html=1;rotation=0;align=left;" parent="1" vertex="1">
          <mxGeometry x="340" y="435" width="90" height="130" as="geometry" />
        </mxCell>
        <mxCell id="cifkW_QOZoFGIp_55xrW-26" style="edgeStyle=orthogonalEdgeStyle;rounded=0;orthogonalLoop=1;jettySize=auto;html=1;exitX=1;exitY=0.5;exitDx=0;exitDy=0;" parent="1" source="cifkW_QOZoFGIp_55xrW-10" edge="1">
          <mxGeometry relative="1" as="geometry">
            <mxPoint x="340" y="450" as="targetPoint" />
          </mxGeometry>
        </mxCell>
        <mxCell id="cifkW_QOZoFGIp_55xrW-10" value="&lt;b&gt;PC&lt;/b&gt;" style="rounded=0;whiteSpace=wrap;html=1;rotation=0;" parent="1" vertex="1">
          <mxGeometry x="260" y="410" width="50" height="80" as="geometry" />
        </mxCell>
        <mxCell id="cifkW_QOZoFGIp_55xrW-75" style="edgeStyle=orthogonalEdgeStyle;rounded=0;orthogonalLoop=1;jettySize=auto;html=1;endArrow=dash;endFill=0;entryX=1;entryY=0.5;entryDx=0;entryDy=0;" parent="1" target="cifkW_QOZoFGIp_55xrW-11" edge="1">
          <mxGeometry relative="1" as="geometry">
            <mxPoint x="690" y="730.3157894736842" as="targetPoint" />
            <mxPoint x="740" y="230" as="sourcePoint" />
            <Array as="points">
              <mxPoint x="740" y="330" />
              <mxPoint x="740" y="730" />
            </Array>
          </mxGeometry>
        </mxCell>
        <mxCell id="cifkW_QOZoFGIp_55xrW-78" value="64" style="edgeLabel;html=1;align=center;verticalAlign=middle;resizable=0;points=[];" parent="cifkW_QOZoFGIp_55xrW-75" vertex="1" connectable="0">
          <mxGeometry x="0.9529" relative="1" as="geometry">
            <mxPoint y="-10" as="offset" />
          </mxGeometry>
        </mxCell>
        <mxCell id="cifkW_QOZoFGIp_55xrW-11" value="Imm&lt;br&gt;Gen" style="ellipse;whiteSpace=wrap;html=1;" parent="1" vertex="1">
          <mxGeometry x="590" y="690" width="50" height="80" as="geometry" />
        </mxCell>
        <mxCell id="cifkW_QOZoFGIp_55xrW-110" style="edgeStyle=orthogonalEdgeStyle;rounded=0;orthogonalLoop=1;jettySize=auto;html=1;entryX=0.5;entryY=1;entryDx=0;entryDy=0;exitX=0.945;exitY=0.259;exitDx=0;exitDy=0;exitPerimeter=0;fillColor=#dae8fc;strokeColor=#6c8ebf;" parent="1" source="cifkW_QOZoFGIp_55xrW-12" edge="1">
          <mxGeometry relative="1" as="geometry">
            <mxPoint x="639.9999941188821" y="340.00347826086966" as="sourcePoint" />
            <mxPoint x="1060" y="644.96" as="targetPoint" />
            <Array as="points">
              <mxPoint x="1210" y="340" />
              <mxPoint x="1210" y="760" />
              <mxPoint x="1060" y="760" />
            </Array>
          </mxGeometry>
        </mxCell>
        <mxCell id="cifkW_QOZoFGIp_55xrW-111" value="MemRead" style="edgeLabel;html=1;align=center;verticalAlign=middle;resizable=0;points=[];" parent="cifkW_QOZoFGIp_55xrW-110" vertex="1" connectable="0">
          <mxGeometry x="-0.9385" y="-1" relative="1" as="geometry">
            <mxPoint x="12" y="-1" as="offset" />
          </mxGeometry>
        </mxCell>
        <mxCell id="cifkW_QOZoFGIp_55xrW-113" style="edgeStyle=orthogonalEdgeStyle;rounded=0;orthogonalLoop=1;jettySize=auto;html=1;endArrow=none;endFill=0;fillColor=#dae8fc;strokeColor=#6c8ebf;entryX=0;entryY=0.5;entryDx=0;entryDy=0;" parent="1" edge="1" target="cifkW_QOZoFGIp_55xrW-33">
          <mxGeometry relative="1" as="geometry">
            <mxPoint x="640" y="362" as="sourcePoint" />
            <mxPoint x="1290" y="570" as="targetPoint" />
            <Array as="points">
              <mxPoint x="700" y="362" />
              <mxPoint x="700" y="400" />
              <mxPoint x="1294" y="400" />
            </Array>
          </mxGeometry>
        </mxCell>
        <mxCell id="cifkW_QOZoFGIp_55xrW-114" value="MemtoReg" style="edgeLabel;html=1;align=center;verticalAlign=middle;resizable=0;points=[];" parent="cifkW_QOZoFGIp_55xrW-113" vertex="1" connectable="0">
          <mxGeometry x="-0.9318" y="1" relative="1" as="geometry">
            <mxPoint x="4" as="offset" />
          </mxGeometry>
        </mxCell>
        <mxCell id="cifkW_QOZoFGIp_55xrW-115" style="edgeStyle=orthogonalEdgeStyle;rounded=0;orthogonalLoop=1;jettySize=auto;html=1;entryX=0.5;entryY=1;entryDx=0;entryDy=0;endArrow=none;endFill=0;strokeColor=#7DB9F5;strokeWidth=2;" parent="1" source="cifkW_QOZoFGIp_55xrW-12" target="cifkW_QOZoFGIp_55xrW-30" edge="1">
          <mxGeometry relative="1" as="geometry">
            <Array as="points">
              <mxPoint x="690" y="375" />
              <mxPoint x="690" y="890" />
              <mxPoint x="800" y="890" />
            </Array>
          </mxGeometry>
        </mxCell>
        <mxCell id="cifkW_QOZoFGIp_55xrW-116" value="ALUOp" style="edgeLabel;html=1;align=center;verticalAlign=middle;resizable=0;points=[];" parent="cifkW_QOZoFGIp_55xrW-115" vertex="1" connectable="0">
          <mxGeometry x="-0.9468" y="1" relative="1" as="geometry">
            <mxPoint x="1" y="1" as="offset" />
          </mxGeometry>
        </mxCell>
        <mxCell id="cifkW_QOZoFGIp_55xrW-117" style="edgeStyle=orthogonalEdgeStyle;rounded=0;orthogonalLoop=1;jettySize=auto;html=1;endArrow=none;endFill=0;fillColor=#dae8fc;strokeColor=#6c8ebf;" parent="1" source="cifkW_QOZoFGIp_55xrW-12" edge="1">
          <mxGeometry relative="1" as="geometry">
            <Array as="points">
              <mxPoint x="1140" y="410" />
              <mxPoint x="1140" y="568" />
            </Array>
            <mxPoint x="1140" y="560" as="targetPoint" />
          </mxGeometry>
        </mxCell>
        <mxCell id="cifkW_QOZoFGIp_55xrW-118" value="MemWrite" style="edgeLabel;html=1;align=center;verticalAlign=middle;resizable=0;points=[];" parent="cifkW_QOZoFGIp_55xrW-117" vertex="1" connectable="0">
          <mxGeometry x="-0.9177" y="1" relative="1" as="geometry">
            <mxPoint x="115" y="1" as="offset" />
          </mxGeometry>
        </mxCell>
        <mxCell id="cifkW_QOZoFGIp_55xrW-122" style="edgeStyle=orthogonalEdgeStyle;rounded=0;orthogonalLoop=1;jettySize=auto;html=1;exitX=0.5;exitY=1;exitDx=0;exitDy=0;endArrow=none;endFill=0;entryX=0.347;entryY=-0.001;entryDx=0;entryDy=0;entryPerimeter=0;" parent="1" source="cifkW_QOZoFGIp_55xrW-12" target="cifkW_QOZoFGIp_55xrW-8" edge="1">
          <mxGeometry relative="1" as="geometry">
            <mxPoint x="604.5555555555554" y="470" as="targetPoint" />
          </mxGeometry>
        </mxCell>
        <mxCell id="cifkW_QOZoFGIp_55xrW-123" value="RegWrite" style="edgeLabel;html=1;align=center;verticalAlign=middle;resizable=0;points=[];" parent="cifkW_QOZoFGIp_55xrW-122" vertex="1" connectable="0">
          <mxGeometry x="-0.5667" y="-1" relative="1" as="geometry">
            <mxPoint x="1" y="5" as="offset" />
          </mxGeometry>
        </mxCell>
        <mxCell id="cifkW_QOZoFGIp_55xrW-131" style="edgeStyle=orthogonalEdgeStyle;rounded=0;orthogonalLoop=1;jettySize=auto;html=1;entryX=0;entryY=0.5;entryDx=0;entryDy=0;" parent="1" target="cifkW_QOZoFGIp_55xrW-127" edge="1">
          <mxGeometry relative="1" as="geometry">
            <Array as="points">
              <mxPoint x="600" y="50" />
              <mxPoint x="1400" y="50" />
            </Array>
            <mxPoint x="600" y="300" as="sourcePoint" />
            <mxPoint x="1130" y="90" as="targetPoint" />
          </mxGeometry>
        </mxCell>
        <mxCell id="cifkW_QOZoFGIp_55xrW-12" value="CU" style="ellipse;whiteSpace=wrap;html=1;fillColor=#dae8fc;strokeColor=#6c8ebf;" parent="1" vertex="1">
          <mxGeometry x="570" y="290" width="70" height="150" as="geometry" />
        </mxCell>
        <mxCell id="cifkW_QOZoFGIp_55xrW-13" value="Shift&amp;nbsp;&lt;br&gt;left1" style="ellipse;whiteSpace=wrap;html=1;" parent="1" vertex="1">
          <mxGeometry x="930" y="197.86" width="40" height="60" as="geometry" />
        </mxCell>
        <mxCell id="cifkW_QOZoFGIp_55xrW-53" style="edgeStyle=orthogonalEdgeStyle;rounded=0;orthogonalLoop=1;jettySize=auto;html=1;" parent="1" edge="1">
          <mxGeometry relative="1" as="geometry">
            <mxPoint x="1100" y="287.86" as="sourcePoint" />
            <mxPoint x="1125" y="259.72" as="targetPoint" />
            <Array as="points">
              <mxPoint x="1125" y="287.72" />
            </Array>
          </mxGeometry>
        </mxCell>
        <mxCell id="cifkW_QOZoFGIp_55xrW-27" value="" style="endArrow=classic;html=1;rounded=0;align=center;" parent="1" edge="1">
          <mxGeometry width="50" height="50" relative="1" as="geometry">
            <mxPoint x="342.5" y="190" as="sourcePoint" />
            <mxPoint x="377.5" y="190" as="targetPoint" />
          </mxGeometry>
        </mxCell>
        <mxCell id="cifkW_QOZoFGIp_55xrW-29" value="4" style="edgeLabel;html=1;align=center;verticalAlign=middle;resizable=0;points=[];" parent="cifkW_QOZoFGIp_55xrW-27" vertex="1" connectable="0">
          <mxGeometry x="-0.3605" relative="1" as="geometry">
            <mxPoint x="-24" as="offset" />
          </mxGeometry>
        </mxCell>
        <mxCell id="cifkW_QOZoFGIp_55xrW-30" value="ALU&lt;br&gt;Control" style="ellipse;whiteSpace=wrap;html=1;fillColor=#dae8fc;strokeColor=#6c8ebf;" parent="1" vertex="1">
          <mxGeometry x="775" y="750" width="50" height="80" as="geometry" />
        </mxCell>
        <mxCell id="cifkW_QOZoFGIp_55xrW-31" value="Add&amp;nbsp; &amp;nbsp; &amp;nbsp; &amp;nbsp; Sum" style="shape=stencil(tZXRjoIwEEW/pq+bQsPq6wb1PyqOS2NtSdvV3b93oGCs0I0IJISkc7mHIb1DCcttySsgKS0J25A0TSjFO66vT2tuKyicL164EXwvwSvWGX2Cqzi4liFUCUa4WmVbQr/wmfpieaGVQojQygbKg44wLhR66a+Hta//C1YV8s/gwLRNNtXd68yPbAFqskSnIbPre95OZ6KGvSaL7NQ81ORNJsuxEgsxy/e8OH0b/aMOfVdUO2oDA8JdFlL6AYt9YMXruesJnXzWF/h/moawnVsK9eC+/wxaP5sKWI0FPGWMTvOvx9qz0P+ZTfOzsf7Q/sL+FVLbaHKwHgkPHguDmWs8vcQ2VX+ONIUb);whiteSpace=wrap;html=1;align=left;" parent="1" vertex="1">
          <mxGeometry x="990" y="107.86" width="80" height="130" as="geometry" />
        </mxCell>
        <mxCell id="cifkW_QOZoFGIp_55xrW-32" value="&amp;nbsp; &amp;nbsp; &amp;nbsp; &amp;nbsp; &amp;nbsp; &amp;nbsp; &amp;nbsp; &amp;nbsp; &amp;nbsp; flags&lt;br&gt;ALU&amp;nbsp; &amp;nbsp; &amp;nbsp; &amp;nbsp; Result&lt;br&gt;&amp;nbsp; &amp;nbsp; &amp;nbsp; &amp;nbsp; &amp;nbsp; &amp;nbsp; &amp;nbsp; &amp;nbsp; &amp;nbsp;&amp;nbsp;" style="shape=stencil(tZXRjoIwEEW/pq+bQsPq6wb1PyqOS2NtSdvV3b93oGCs0I0IJISkc7mHIb1DCcttySsgKS0J25A0TSjFO66vT2tuKyicL164EXwvwSvWGX2Cqzi4liFUCUa4WmVbQr/wmfpieaGVQojQygbKg44wLhR66a+Hta//C1YV8s/gwLRNNtXd68yPbAFqskSnIbPre95OZ6KGvSaL7NQ81ORNJsuxEgsxy/e8OH0b/aMOfVdUO2oDA8JdFlL6AYt9YMXruesJnXzWF/h/moawnVsK9eC+/wxaP5sKWI0FPGWMTvOvx9qz0P+ZTfOzsf7Q/sL+FVLbaHKwHgkPHguDmWs8vcQ2VX+ONIUb);whiteSpace=wrap;html=1;align=left;" parent="1" vertex="1">
          <mxGeometry x="880" y="450" width="90" height="140" as="geometry" />
        </mxCell>
        <mxCell id="PuY_X1fyGsi5mwH5HdUy-5" style="edgeStyle=orthogonalEdgeStyle;rounded=0;orthogonalLoop=1;jettySize=auto;html=1;exitX=0.5;exitY=0;exitDx=0;exitDy=0;entryX=0.75;entryY=1;entryDx=0;entryDy=0;" edge="1" parent="1" target="PuY_X1fyGsi5mwH5HdUy-1">
          <mxGeometry relative="1" as="geometry">
            <mxPoint x="460" y="850" as="targetPoint" />
            <mxPoint x="1306.0399999999993" y="636.54" as="sourcePoint" />
            <Array as="points">
              <mxPoint x="1326" y="637" />
              <mxPoint x="1326" y="870" />
              <mxPoint x="460" y="870" />
              <mxPoint x="460" y="657" />
            </Array>
          </mxGeometry>
        </mxCell>
        <mxCell id="cifkW_QOZoFGIp_55xrW-33" value="&lt;div style=&quot;text-align: left;&quot;&gt;1&lt;/div&gt;&lt;div style=&quot;text-align: left;&quot;&gt;&lt;br&gt;&lt;/div&gt;&lt;div style=&quot;text-align: left;&quot;&gt;&lt;/div&gt;Mux&lt;br&gt;&lt;br&gt;&lt;div style=&quot;text-align: left;&quot;&gt;0&lt;/div&gt;" style="shape=trapezoid;perimeter=trapezoidPerimeter;whiteSpace=wrap;fixedSize=1;rotation=90;html=1;textDirection=ltr;horizontal=0;" parent="1" vertex="1">
          <mxGeometry x="1250" y="606.5400000000001" width="87.36" height="30" as="geometry" />
        </mxCell>
        <mxCell id="cifkW_QOZoFGIp_55xrW-34" value="&lt;div style=&quot;text-align: left;&quot;&gt;0&lt;br&gt;&lt;/div&gt;&lt;div style=&quot;text-align: left;&quot;&gt;&lt;br&gt;&lt;/div&gt;&lt;div style=&quot;text-align: left;&quot;&gt;&lt;/div&gt;Mux&lt;br&gt;&lt;br&gt;&lt;div style=&quot;text-align: left;&quot;&gt;1&lt;/div&gt;" style="shape=trapezoid;perimeter=trapezoidPerimeter;whiteSpace=wrap;fixedSize=1;rotation=90;html=1;textDirection=ltr;horizontal=0;" parent="1" vertex="1">
          <mxGeometry x="1100" y="117.86" width="90" height="30" as="geometry" />
        </mxCell>
        <mxCell id="cifkW_QOZoFGIp_55xrW-106" style="edgeStyle=orthogonalEdgeStyle;rounded=0;orthogonalLoop=1;jettySize=auto;html=1;entryX=0.122;entryY=1.114;entryDx=0;entryDy=0;entryPerimeter=0;" parent="1" source="cifkW_QOZoFGIp_55xrW-35" target="cifkW_QOZoFGIp_55xrW-33" edge="1">
          <mxGeometry relative="1" as="geometry">
            <mxPoint x="1225" y="587.86" as="targetPoint" />
            <Array as="points">
              <mxPoint x="1195" y="588" />
            </Array>
          </mxGeometry>
        </mxCell>
        <mxCell id="cifkW_QOZoFGIp_55xrW-35" value="Address&amp;nbsp; &amp;nbsp; RD&lt;br&gt;&lt;br&gt;&lt;br&gt;Write&lt;br&gt;data&lt;br&gt;&lt;br&gt;&lt;b&gt;Data Memory&lt;/b&gt;" style="rounded=0;whiteSpace=wrap;html=1;align=left;" parent="1" vertex="1">
          <mxGeometry x="1105" y="567.86" width="80" height="110" as="geometry" />
        </mxCell>
        <mxCell id="cifkW_QOZoFGIp_55xrW-43" value="" style="endArrow=classic;html=1;rounded=0;entryX=0.002;entryY=0.1;entryDx=0;entryDy=0;entryPerimeter=0;" parent="1" target="cifkW_QOZoFGIp_55xrW-1" edge="1">
          <mxGeometry width="50" height="50" relative="1" as="geometry">
            <mxPoint x="320" y="450" as="sourcePoint" />
            <mxPoint x="460" y="100" as="targetPoint" />
            <Array as="points">
              <mxPoint x="320" y="110" />
            </Array>
          </mxGeometry>
        </mxCell>
        <mxCell id="cifkW_QOZoFGIp_55xrW-45" style="edgeStyle=orthogonalEdgeStyle;rounded=0;orthogonalLoop=1;jettySize=auto;html=1;exitX=1;exitY=0.5;exitDx=0;exitDy=0;entryX=0.176;entryY=1.045;entryDx=0;entryDy=0;entryPerimeter=0;" parent="1" source="cifkW_QOZoFGIp_55xrW-1" target="cifkW_QOZoFGIp_55xrW-34" edge="1">
          <mxGeometry relative="1" as="geometry">
            <Array as="points">
              <mxPoint x="430" y="150" />
              <mxPoint x="730" y="150" />
              <mxPoint x="730" y="106" />
              <mxPoint x="1100" y="106" />
              <mxPoint x="1100" y="104" />
            </Array>
            <mxPoint x="1100" y="103" as="targetPoint" />
          </mxGeometry>
        </mxCell>
        <mxCell id="cifkW_QOZoFGIp_55xrW-51" style="edgeStyle=orthogonalEdgeStyle;rounded=0;orthogonalLoop=1;jettySize=auto;html=1;exitX=1;exitY=0.5;exitDx=0;exitDy=0;entryX=0.84;entryY=1.052;entryDx=0;entryDy=0;entryPerimeter=0;" parent="1" source="cifkW_QOZoFGIp_55xrW-31" target="cifkW_QOZoFGIp_55xrW-34" edge="1">
          <mxGeometry relative="1" as="geometry" />
        </mxCell>
        <mxCell id="cifkW_QOZoFGIp_55xrW-55" style="edgeStyle=orthogonalEdgeStyle;rounded=0;orthogonalLoop=1;jettySize=auto;html=1;exitX=0.995;exitY=0.317;exitDx=0;exitDy=0;exitPerimeter=0;entryX=0.5;entryY=1;entryDx=0;entryDy=0;" parent="1" source="cifkW_QOZoFGIp_55xrW-32" target="azecJroQP5KL0mqIL3fB-2" edge="1">
          <mxGeometry relative="1" as="geometry">
            <mxPoint x="1075" y="377.86" as="targetPoint" />
          </mxGeometry>
        </mxCell>
        <mxCell id="cifkW_QOZoFGIp_55xrW-61" value="" style="endArrow=classic;html=1;rounded=0;entryX=-0.027;entryY=0.085;entryDx=0;entryDy=0;entryPerimeter=0;" parent="1" target="cifkW_QOZoFGIp_55xrW-8" edge="1">
          <mxGeometry width="50" height="50" relative="1" as="geometry">
            <mxPoint x="450" y="490" as="sourcePoint" />
            <mxPoint x="600" y="550" as="targetPoint" />
            <Array as="points" />
          </mxGeometry>
        </mxCell>
        <mxCell id="cifkW_QOZoFGIp_55xrW-62" value="Instruction [19-15]" style="edgeLabel;html=1;align=center;verticalAlign=middle;resizable=0;points=[];" parent="cifkW_QOZoFGIp_55xrW-61" vertex="1" connectable="0">
          <mxGeometry x="-0.117" y="-2" relative="1" as="geometry">
            <mxPoint y="-2" as="offset" />
          </mxGeometry>
        </mxCell>
        <mxCell id="cifkW_QOZoFGIp_55xrW-63" value="" style="endArrow=classic;html=1;rounded=0;entryX=-0.004;entryY=0.289;entryDx=0;entryDy=0;entryPerimeter=0;" parent="1" target="cifkW_QOZoFGIp_55xrW-8" edge="1">
          <mxGeometry width="50" height="50" relative="1" as="geometry">
            <mxPoint x="450" y="530" as="sourcePoint" />
            <mxPoint x="570" y="540" as="targetPoint" />
            <Array as="points" />
          </mxGeometry>
        </mxCell>
        <mxCell id="cifkW_QOZoFGIp_55xrW-64" value="Instruction [24-20]" style="edgeLabel;html=1;align=center;verticalAlign=middle;resizable=0;points=[];" parent="cifkW_QOZoFGIp_55xrW-63" vertex="1" connectable="0">
          <mxGeometry x="-0.1527" y="3" relative="1" as="geometry">
            <mxPoint as="offset" />
          </mxGeometry>
        </mxCell>
        <mxCell id="cifkW_QOZoFGIp_55xrW-67" value="" style="endArrow=classic;html=1;rounded=0;entryX=-0.009;entryY=0.553;entryDx=0;entryDy=0;entryPerimeter=0;" parent="1" target="cifkW_QOZoFGIp_55xrW-8" edge="1">
          <mxGeometry width="50" height="50" relative="1" as="geometry">
            <mxPoint x="450" y="580" as="sourcePoint" />
            <mxPoint x="560" y="590" as="targetPoint" />
            <Array as="points">
              <mxPoint x="510" y="580" />
            </Array>
          </mxGeometry>
        </mxCell>
        <mxCell id="cifkW_QOZoFGIp_55xrW-69" value="Instruction [11-7]" style="edgeLabel;html=1;align=center;verticalAlign=middle;resizable=0;points=[];" parent="cifkW_QOZoFGIp_55xrW-67" vertex="1" connectable="0">
          <mxGeometry x="-0.0579" y="1" relative="1" as="geometry">
            <mxPoint as="offset" />
          </mxGeometry>
        </mxCell>
        <mxCell id="cifkW_QOZoFGIp_55xrW-70" value="" style="endArrow=dash;html=1;rounded=0;entryX=0;entryY=0.5;entryDx=0;entryDy=0;endFill=0;" parent="1" target="cifkW_QOZoFGIp_55xrW-11" edge="1">
          <mxGeometry width="50" height="50" relative="1" as="geometry">
            <mxPoint x="450" y="520" as="sourcePoint" />
            <mxPoint x="540" y="730" as="targetPoint" />
            <Array as="points">
              <mxPoint x="450" y="730" />
            </Array>
          </mxGeometry>
        </mxCell>
        <mxCell id="cifkW_QOZoFGIp_55xrW-72" value="Instruction [31-0]" style="edgeLabel;html=1;align=center;verticalAlign=middle;resizable=0;points=[];" parent="cifkW_QOZoFGIp_55xrW-70" vertex="1" connectable="0">
          <mxGeometry x="0.4375" y="1" relative="1" as="geometry">
            <mxPoint x="-24" y="1" as="offset" />
          </mxGeometry>
        </mxCell>
        <mxCell id="cifkW_QOZoFGIp_55xrW-73" value="32" style="edgeLabel;html=1;align=center;verticalAlign=middle;resizable=0;points=[];" parent="cifkW_QOZoFGIp_55xrW-70" vertex="1" connectable="0">
          <mxGeometry x="0.9006" y="2" relative="1" as="geometry">
            <mxPoint y="-8" as="offset" />
          </mxGeometry>
        </mxCell>
        <mxCell id="cifkW_QOZoFGIp_55xrW-77" value="" style="endArrow=classic;html=1;rounded=0;entryX=0;entryY=0.5;entryDx=0;entryDy=0;" parent="1" target="cifkW_QOZoFGIp_55xrW-13" edge="1">
          <mxGeometry width="50" height="50" relative="1" as="geometry">
            <mxPoint x="740" y="230" as="sourcePoint" />
            <mxPoint x="845" y="310" as="targetPoint" />
          </mxGeometry>
        </mxCell>
        <mxCell id="cifkW_QOZoFGIp_55xrW-87" style="edgeStyle=orthogonalEdgeStyle;rounded=0;orthogonalLoop=1;jettySize=auto;html=1;exitX=1;exitY=0.5;exitDx=0;exitDy=0;entryX=0.637;entryY=0.832;entryDx=0;entryDy=0;entryPerimeter=0;strokeWidth=2;strokeColor=#7DB9F5;" parent="1" source="cifkW_QOZoFGIp_55xrW-30" target="cifkW_QOZoFGIp_55xrW-32" edge="1">
          <mxGeometry relative="1" as="geometry">
            <mxPoint x="910" y="787.86" as="sourcePoint" />
          </mxGeometry>
        </mxCell>
        <mxCell id="cifkW_QOZoFGIp_55xrW-88" value="&lt;div style=&quot;text-align: left;&quot;&gt;0&lt;br&gt;&lt;/div&gt;&lt;div style=&quot;text-align: left;&quot;&gt;&lt;br&gt;&lt;/div&gt;&lt;div style=&quot;text-align: left;&quot;&gt;&lt;/div&gt;Mux&lt;br&gt;&lt;br&gt;&lt;div style=&quot;text-align: left;&quot;&gt;1&lt;/div&gt;" style="shape=trapezoid;perimeter=trapezoidPerimeter;whiteSpace=wrap;fixedSize=1;rotation=90;html=1;textDirection=ltr;horizontal=0;" parent="1" vertex="1">
          <mxGeometry x="735" y="565" width="90" height="30" as="geometry" />
        </mxCell>
        <mxCell id="cifkW_QOZoFGIp_55xrW-89" style="edgeStyle=orthogonalEdgeStyle;rounded=0;orthogonalLoop=1;jettySize=auto;html=1;entryX=0.172;entryY=1;entryDx=0;entryDy=0;entryPerimeter=0;" parent="1" source="cifkW_QOZoFGIp_55xrW-8" target="cifkW_QOZoFGIp_55xrW-88" edge="1">
          <mxGeometry relative="1" as="geometry" />
        </mxCell>
        <mxCell id="cifkW_QOZoFGIp_55xrW-91" value="" style="endArrow=classic;html=1;rounded=0;entryX=0.83;entryY=1.04;entryDx=0;entryDy=0;entryPerimeter=0;" parent="1" target="cifkW_QOZoFGIp_55xrW-88" edge="1">
          <mxGeometry width="50" height="50" relative="1" as="geometry">
            <mxPoint x="740" y="609" as="sourcePoint" />
            <mxPoint x="760" y="609.25" as="targetPoint" />
          </mxGeometry>
        </mxCell>
        <mxCell id="cifkW_QOZoFGIp_55xrW-93" value="" style="endArrow=classic;html=1;rounded=0;entryX=-0.032;entryY=0.645;entryDx=0;entryDy=0;entryPerimeter=0;" parent="1" target="cifkW_QOZoFGIp_55xrW-35" edge="1">
          <mxGeometry width="50" height="50" relative="1" as="geometry">
            <mxPoint x="700" y="570" as="sourcePoint" />
            <mxPoint x="1018" y="641" as="targetPoint" />
            <Array as="points">
              <mxPoint x="700" y="640" />
            </Array>
          </mxGeometry>
        </mxCell>
        <mxCell id="cifkW_QOZoFGIp_55xrW-99" value="" style="endArrow=classic;html=1;rounded=0;entryX=0;entryY=0.5;entryDx=0;entryDy=0;" parent="1" target="cifkW_QOZoFGIp_55xrW-30" edge="1">
          <mxGeometry width="50" height="50" relative="1" as="geometry">
            <mxPoint x="560" y="730" as="sourcePoint" />
            <mxPoint x="800" y="770" as="targetPoint" />
            <Array as="points">
              <mxPoint x="560" y="790" />
              <mxPoint x="650" y="790" />
            </Array>
          </mxGeometry>
        </mxCell>
        <mxCell id="cifkW_QOZoFGIp_55xrW-100" value="Instruction [30, 14-12]" style="edgeLabel;html=1;align=center;verticalAlign=middle;resizable=0;points=[];" parent="cifkW_QOZoFGIp_55xrW-99" vertex="1" connectable="0">
          <mxGeometry x="0.4069" y="3" relative="1" as="geometry">
            <mxPoint x="-63" y="3" as="offset" />
          </mxGeometry>
        </mxCell>
        <mxCell id="cifkW_QOZoFGIp_55xrW-107" style="edgeStyle=orthogonalEdgeStyle;rounded=0;orthogonalLoop=1;jettySize=auto;html=1;exitX=1;exitY=0;exitDx=0;exitDy=0;endArrow=classic;endFill=1;entryX=-0.067;entryY=0.375;entryDx=0;entryDy=0;entryPerimeter=0;fillColor=#dae8fc;strokeColor=#6c8ebf;" parent="1" source="cifkW_QOZoFGIp_55xrW-12" target="azecJroQP5KL0mqIL3fB-2" edge="1">
          <mxGeometry relative="1" as="geometry">
            <mxPoint x="930" y="290" as="targetPoint" />
          </mxGeometry>
        </mxCell>
        <mxCell id="cifkW_QOZoFGIp_55xrW-109" value="Branch" style="edgeLabel;html=1;align=center;verticalAlign=middle;resizable=0;points=[];" parent="cifkW_QOZoFGIp_55xrW-107" vertex="1" connectable="0">
          <mxGeometry x="-0.7424" y="1" relative="1" as="geometry">
            <mxPoint as="offset" />
          </mxGeometry>
        </mxCell>
        <mxCell id="cifkW_QOZoFGIp_55xrW-119" style="edgeStyle=orthogonalEdgeStyle;rounded=0;orthogonalLoop=1;jettySize=auto;html=1;entryX=0.111;entryY=0.386;entryDx=0;entryDy=0;entryPerimeter=0;fillColor=#dae8fc;strokeColor=#6c8ebf;" parent="1" source="cifkW_QOZoFGIp_55xrW-12" target="cifkW_QOZoFGIp_55xrW-88" edge="1">
          <mxGeometry relative="1" as="geometry">
            <Array as="points">
              <mxPoint x="783" y="420" />
            </Array>
          </mxGeometry>
        </mxCell>
        <mxCell id="cifkW_QOZoFGIp_55xrW-120" value="ALUSrc" style="edgeLabel;html=1;align=center;verticalAlign=middle;resizable=0;points=[];" parent="cifkW_QOZoFGIp_55xrW-119" vertex="1" connectable="0">
          <mxGeometry x="-0.8755" relative="1" as="geometry">
            <mxPoint x="10" as="offset" />
          </mxGeometry>
        </mxCell>
        <mxCell id="cifkW_QOZoFGIp_55xrW-125" value="" style="endArrow=classic;html=1;rounded=0;entryX=-0.046;entryY=0.127;entryDx=0;entryDy=0;entryPerimeter=0;" parent="1" target="cifkW_QOZoFGIp_55xrW-31" edge="1">
          <mxGeometry width="50" height="50" relative="1" as="geometry">
            <mxPoint x="320" y="250" as="sourcePoint" />
            <mxPoint x="370" y="200" as="targetPoint" />
            <Array as="points">
              <mxPoint x="430" y="250" />
              <mxPoint x="430" y="210" />
              <mxPoint x="820" y="210" />
              <mxPoint x="820" y="127" />
            </Array>
          </mxGeometry>
        </mxCell>
        <mxCell id="cifkW_QOZoFGIp_55xrW-133" style="edgeStyle=orthogonalEdgeStyle;rounded=0;orthogonalLoop=1;jettySize=auto;html=1;entryX=0;entryY=0.5;entryDx=0;entryDy=0;exitX=0.5;exitY=0;exitDx=0;exitDy=0;" parent="1" source="cifkW_QOZoFGIp_55xrW-127" target="cifkW_QOZoFGIp_55xrW-10" edge="1">
          <mxGeometry relative="1" as="geometry">
            <Array as="points">
              <mxPoint x="1580" y="150" />
              <mxPoint x="1580" y="10" />
              <mxPoint x="240" y="10" />
              <mxPoint x="240" y="450" />
            </Array>
            <mxPoint x="1460" y="150" as="sourcePoint" />
          </mxGeometry>
        </mxCell>
        <mxCell id="cifkW_QOZoFGIp_55xrW-127" value="&lt;div style=&quot;text-align: left;&quot;&gt;&lt;br&gt;&lt;/div&gt;&lt;div style=&quot;text-align: left;&quot;&gt;&lt;br&gt;&lt;/div&gt;&lt;div style=&quot;text-align: left;&quot;&gt;&lt;/div&gt;Mux&lt;br&gt;&lt;br&gt;&lt;div style=&quot;text-align: left;&quot;&gt;&lt;br&gt;&lt;/div&gt;" style="shape=trapezoid;perimeter=trapezoidPerimeter;whiteSpace=wrap;fixedSize=1;rotation=90;html=1;textDirection=ltr;horizontal=0;" parent="1" vertex="1">
          <mxGeometry x="1331.43" y="131.43" width="145" height="37.86" as="geometry" />
        </mxCell>
        <mxCell id="cifkW_QOZoFGIp_55xrW-135" style="edgeStyle=orthogonalEdgeStyle;rounded=0;orthogonalLoop=1;jettySize=auto;html=1;exitX=0.25;exitY=0;exitDx=0;exitDy=0;entryX=0.25;entryY=1;entryDx=0;entryDy=0;" parent="1" source="cifkW_QOZoFGIp_55xrW-34" target="cifkW_QOZoFGIp_55xrW-127" edge="1">
          <mxGeometry relative="1" as="geometry">
            <Array as="points">
              <mxPoint x="1160" y="133" />
              <mxPoint x="1273" y="133" />
              <mxPoint x="1273" y="120" />
              <mxPoint x="1370" y="120" />
              <mxPoint x="1370" y="114" />
            </Array>
            <mxPoint x="1370" y="100" as="targetPoint" />
          </mxGeometry>
        </mxCell>
        <mxCell id="azecJroQP5KL0mqIL3fB-2" value="Branch&lt;br&gt;control" style="ellipse;whiteSpace=wrap;html=1;" parent="1" vertex="1">
          <mxGeometry x="1050" y="237.86" width="50" height="80" as="geometry" />
        </mxCell>
        <mxCell id="azecJroQP5KL0mqIL3fB-6" style="edgeStyle=orthogonalEdgeStyle;rounded=0;orthogonalLoop=1;jettySize=auto;html=1;exitX=1;exitY=0.5;exitDx=0;exitDy=0;entryX=0.004;entryY=0.913;entryDx=0;entryDy=0;entryPerimeter=0;" parent="1" source="cifkW_QOZoFGIp_55xrW-13" target="cifkW_QOZoFGIp_55xrW-31" edge="1">
          <mxGeometry relative="1" as="geometry" />
        </mxCell>
        <mxCell id="azecJroQP5KL0mqIL3fB-23" style="edgeStyle=orthogonalEdgeStyle;rounded=0;orthogonalLoop=1;jettySize=auto;html=1;exitX=1;exitY=0.5;exitDx=0;exitDy=0;entryX=0.5;entryY=1;entryDx=0;entryDy=0;" parent="1" source="cifkW_QOZoFGIp_55xrW-32" target="cifkW_QOZoFGIp_55xrW-127" edge="1">
          <mxGeometry relative="1" as="geometry">
            <Array as="points">
              <mxPoint x="970" y="522" />
              <mxPoint x="1180" y="522" />
              <mxPoint x="1180" y="241" />
              <mxPoint x="1300" y="241" />
              <mxPoint x="1300" y="150" />
            </Array>
            <mxPoint x="1360" y="150" as="targetPoint" />
          </mxGeometry>
        </mxCell>
        <mxCell id="PuY_X1fyGsi5mwH5HdUy-7" value="Text" style="edgeLabel;html=1;align=center;verticalAlign=middle;resizable=0;points=[];" vertex="1" connectable="0" parent="azecJroQP5KL0mqIL3fB-23">
          <mxGeometry x="-0.6287" y="-4" relative="1" as="geometry">
            <mxPoint as="offset" />
          </mxGeometry>
        </mxCell>
        <mxCell id="azecJroQP5KL0mqIL3fB-28" style="edgeStyle=orthogonalEdgeStyle;rounded=0;orthogonalLoop=1;jettySize=auto;html=1;exitX=1;exitY=0.5;exitDx=0;exitDy=0;entryX=0.856;entryY=1.046;entryDx=0;entryDy=0;entryPerimeter=0;" parent="1" source="cifkW_QOZoFGIp_55xrW-32" target="cifkW_QOZoFGIp_55xrW-33" edge="1">
          <mxGeometry relative="1" as="geometry">
            <Array as="points">
              <mxPoint x="995" y="521.86" />
              <mxPoint x="995" y="717.86" />
              <mxPoint x="1215" y="717.86" />
              <mxPoint x="1215" y="652.86" />
            </Array>
          </mxGeometry>
        </mxCell>
        <mxCell id="azecJroQP5KL0mqIL3fB-46" style="edgeStyle=orthogonalEdgeStyle;rounded=0;orthogonalLoop=1;jettySize=auto;html=1;exitX=1;exitY=0.5;exitDx=0;exitDy=0;entryX=0.5;entryY=1;entryDx=0;entryDy=0;" parent="1" source="azecJroQP5KL0mqIL3fB-45" target="cifkW_QOZoFGIp_55xrW-9" edge="1">
          <mxGeometry relative="1" as="geometry" />
        </mxCell>
        <mxCell id="azecJroQP5KL0mqIL3fB-47" style="edgeStyle=orthogonalEdgeStyle;rounded=0;orthogonalLoop=1;jettySize=auto;html=1;exitX=1;exitY=0.5;exitDx=0;exitDy=0;entryX=0.5;entryY=1;entryDx=0;entryDy=0;" parent="1" source="azecJroQP5KL0mqIL3fB-45" target="cifkW_QOZoFGIp_55xrW-10" edge="1">
          <mxGeometry relative="1" as="geometry" />
        </mxCell>
        <mxCell id="azecJroQP5KL0mqIL3fB-48" style="edgeStyle=orthogonalEdgeStyle;rounded=0;orthogonalLoop=1;jettySize=auto;html=1;exitX=1;exitY=0.5;exitDx=0;exitDy=0;" parent="1" source="azecJroQP5KL0mqIL3fB-45" edge="1">
          <mxGeometry relative="1" as="geometry">
            <mxPoint x="580" y="670" as="targetPoint" />
            <Array as="points">
              <mxPoint x="530" y="970" />
              <mxPoint x="530" y="710" />
              <mxPoint x="580" y="710" />
            </Array>
          </mxGeometry>
        </mxCell>
        <mxCell id="azecJroQP5KL0mqIL3fB-49" style="edgeStyle=orthogonalEdgeStyle;rounded=0;orthogonalLoop=1;jettySize=auto;html=1;exitX=1;exitY=0.5;exitDx=0;exitDy=0;entryX=0.25;entryY=1;entryDx=0;entryDy=0;" parent="1" source="azecJroQP5KL0mqIL3fB-45" target="cifkW_QOZoFGIp_55xrW-35" edge="1">
          <mxGeometry relative="1" as="geometry">
            <Array as="points">
              <mxPoint x="500" y="970" />
              <mxPoint x="500" y="910" />
              <mxPoint x="1010" y="910" />
              <mxPoint x="1010" y="710" />
              <mxPoint x="1125" y="710" />
            </Array>
          </mxGeometry>
        </mxCell>
        <mxCell id="azecJroQP5KL0mqIL3fB-45" value="clk" style="ellipse;whiteSpace=wrap;html=1;aspect=fixed;" parent="1" vertex="1">
          <mxGeometry x="220" y="950" width="40" height="40" as="geometry" />
        </mxCell>
        <mxCell id="azecJroQP5KL0mqIL3fB-55" style="edgeStyle=orthogonalEdgeStyle;rounded=0;orthogonalLoop=1;jettySize=auto;html=1;exitX=1.002;exitY=0.153;exitDx=0;exitDy=0;exitPerimeter=0;entryX=-0.015;entryY=0.144;entryDx=0;entryDy=0;entryPerimeter=0;" parent="1" source="cifkW_QOZoFGIp_55xrW-8" target="cifkW_QOZoFGIp_55xrW-32" edge="1">
          <mxGeometry relative="1" as="geometry">
            <Array as="points">
              <mxPoint x="800" y="504" />
              <mxPoint x="800" y="470" />
            </Array>
            <mxPoint x="840" y="480" as="targetPoint" />
          </mxGeometry>
        </mxCell>
        <mxCell id="azecJroQP5KL0mqIL3fB-61" style="edgeStyle=orthogonalEdgeStyle;rounded=0;orthogonalLoop=1;jettySize=auto;html=1;exitX=0.5;exitY=0;exitDx=0;exitDy=0;entryX=0;entryY=0.929;entryDx=0;entryDy=0;entryPerimeter=0;" parent="1" source="cifkW_QOZoFGIp_55xrW-88" target="cifkW_QOZoFGIp_55xrW-32" edge="1">
          <mxGeometry relative="1" as="geometry" />
        </mxCell>
        <mxCell id="PuY_X1fyGsi5mwH5HdUy-1" value="&lt;div style=&quot;text-align: left;&quot;&gt;&lt;br&gt;&lt;/div&gt;&lt;div style=&quot;text-align: left;&quot;&gt;&lt;br&gt;&lt;/div&gt;&lt;div style=&quot;text-align: left;&quot;&gt;&lt;/div&gt;Mux&lt;br&gt;&lt;br&gt;&lt;div style=&quot;text-align: left;&quot;&gt;&lt;br&gt;&lt;/div&gt;" style="shape=trapezoid;perimeter=trapezoidPerimeter;whiteSpace=wrap;fixedSize=1;rotation=90;html=1;textDirection=ltr;horizontal=0;" vertex="1" parent="1">
          <mxGeometry x="460" y="620" width="87.36" height="30" as="geometry" />
        </mxCell>
        <mxCell id="PuY_X1fyGsi5mwH5HdUy-9" style="edgeStyle=orthogonalEdgeStyle;rounded=0;orthogonalLoop=1;jettySize=auto;html=1;exitX=0.5;exitY=0;exitDx=0;exitDy=0;entryX=0.1;entryY=0.763;entryDx=0;entryDy=0;entryPerimeter=0;" edge="1" parent="1" source="PuY_X1fyGsi5mwH5HdUy-1" target="cifkW_QOZoFGIp_55xrW-8">
          <mxGeometry relative="1" as="geometry" />
        </mxCell>
        <mxCell id="PuY_X1fyGsi5mwH5HdUy-10" value="" style="endArrow=classic;html=1;rounded=0;entryX=0.5;entryY=1;entryDx=0;entryDy=0;" edge="1" parent="1" target="PuY_X1fyGsi5mwH5HdUy-1">
          <mxGeometry width="50" height="50" relative="1" as="geometry">
            <mxPoint x="1090" y="170" as="sourcePoint" />
            <mxPoint x="410" y="640" as="targetPoint" />
            <Array as="points">
              <mxPoint x="1090" y="220" />
              <mxPoint x="1360" y="220" />
              <mxPoint x="1360" y="960" />
              <mxPoint x="410" y="960" />
              <mxPoint x="410" y="640" />
            </Array>
          </mxGeometry>
        </mxCell>
        <mxCell id="PuY_X1fyGsi5mwH5HdUy-11" value="" style="endArrow=classic;html=1;rounded=0;entryX=0.25;entryY=1;entryDx=0;entryDy=0;" edge="1" parent="1" target="PuY_X1fyGsi5mwH5HdUy-1">
          <mxGeometry width="50" height="50" relative="1" as="geometry">
            <mxPoint x="440" y="150" as="sourcePoint" />
            <mxPoint x="440" y="620" as="targetPoint" />
            <Array as="points">
              <mxPoint x="440" y="270" />
              <mxPoint x="440" y="613" />
            </Array>
          </mxGeometry>
        </mxCell>
        <mxCell id="PuY_X1fyGsi5mwH5HdUy-12" value="" style="endArrow=classic;html=1;rounded=0;" edge="1" parent="1">
          <mxGeometry width="50" height="50" relative="1" as="geometry">
            <mxPoint x="360" y="710" as="sourcePoint" />
            <mxPoint x="510" y="665" as="targetPoint" />
            <Array as="points">
              <mxPoint x="510" y="710" />
              <mxPoint x="510" y="685" />
            </Array>
          </mxGeometry>
        </mxCell>
        <mxCell id="PuY_X1fyGsi5mwH5HdUy-13" value="" style="endArrow=classic;html=1;rounded=0;entryX=0.023;entryY=0.194;entryDx=0;entryDy=0;entryPerimeter=0;" edge="1" parent="1" target="cifkW_QOZoFGIp_55xrW-35">
          <mxGeometry width="50" height="50" relative="1" as="geometry">
            <mxPoint x="1029.55" y="520" as="sourcePoint" />
            <mxPoint x="1030" y="590" as="targetPoint" />
            <Array as="points">
              <mxPoint x="1030" y="590" />
            </Array>
          </mxGeometry>
        </mxCell>
        <mxCell id="PuY_X1fyGsi5mwH5HdUy-17" style="edgeStyle=orthogonalEdgeStyle;rounded=0;orthogonalLoop=1;jettySize=auto;html=1;exitX=1;exitY=0.5;exitDx=0;exitDy=0;exitPerimeter=0;entryX=1;entryY=0.75;entryDx=0;entryDy=0;" edge="1" parent="1" source="PuY_X1fyGsi5mwH5HdUy-15" target="cifkW_QOZoFGIp_55xrW-34">
          <mxGeometry relative="1" as="geometry">
            <Array as="points">
              <mxPoint x="1140" y="203" />
              <mxPoint x="1138" y="203" />
            </Array>
          </mxGeometry>
        </mxCell>
        <mxCell id="PuY_X1fyGsi5mwH5HdUy-15" value="" style="shape=or;whiteSpace=wrap;html=1;direction=north;" vertex="1" parent="1">
          <mxGeometry x="1120" y="227.86" width="40" height="30" as="geometry" />
        </mxCell>
        <mxCell id="PuY_X1fyGsi5mwH5HdUy-16" value="" style="endArrow=classic;html=1;rounded=0;entryX=0;entryY=0.75;entryDx=0;entryDy=0;entryPerimeter=0;" edge="1" parent="1" target="PuY_X1fyGsi5mwH5HdUy-15">
          <mxGeometry width="50" height="50" relative="1" as="geometry">
            <mxPoint x="1400" y="380" as="sourcePoint" />
            <mxPoint x="1150" y="270" as="targetPoint" />
            <Array as="points">
              <mxPoint x="1150" y="380" />
            </Array>
          </mxGeometry>
        </mxCell>
        <mxCell id="PuY_X1fyGsi5mwH5HdUy-18" value="&lt;span style=&quot;color: rgb(0, 0, 0); font-family: Helvetica; font-size: 12px; font-style: normal; font-variant-ligatures: normal; font-variant-caps: normal; font-weight: 400; letter-spacing: normal; orphans: 2; text-align: left; text-indent: 0px; text-transform: none; widows: 2; word-spacing: 0px; -webkit-text-stroke-width: 0px; white-space: normal; background-color: rgb(251, 251, 251); text-decoration-thickness: initial; text-decoration-style: initial; text-decoration-color: initial; display: inline !important; float: none;&quot;&gt;jump&lt;/span&gt;" style="text;whiteSpace=wrap;html=1;" vertex="1" parent="1">
          <mxGeometry x="1400" y="370" width="50" height="40" as="geometry" />
        </mxCell>
        <mxCell id="PuY_X1fyGsi5mwH5HdUy-19" value="" style="endArrow=classic;html=1;rounded=0;entryX=0;entryY=1;entryDx=0;entryDy=0;" edge="1" parent="1" target="azecJroQP5KL0mqIL3fB-2">
          <mxGeometry width="50" height="50" relative="1" as="geometry">
            <mxPoint x="478.68" y="297.86" as="sourcePoint" />
            <mxPoint x="1010" y="290" as="targetPoint" />
            <Array as="points">
              <mxPoint x="479" y="260" />
              <mxPoint x="880" y="260" />
              <mxPoint x="880" y="306" />
            </Array>
          </mxGeometry>
        </mxCell>
        <mxCell id="PuY_X1fyGsi5mwH5HdUy-20" value="&lt;span style=&quot;color: rgb(0, 0, 0); font-family: Helvetica; font-size: 12px; font-style: normal; font-variant-ligatures: normal; font-variant-caps: normal; font-weight: 400; letter-spacing: normal; orphans: 2; text-align: left; text-indent: 0px; text-transform: none; widows: 2; word-spacing: 0px; -webkit-text-stroke-width: 0px; white-space: normal; background-color: rgb(251, 251, 251); text-decoration-thickness: initial; text-decoration-style: initial; text-decoration-color: initial; display: inline !important; float: none;&quot;&gt;func3&lt;/span&gt;" style="text;whiteSpace=wrap;html=1;" vertex="1" parent="1">
          <mxGeometry x="940" y="300" width="50" height="40" as="geometry" />
        </mxCell>
        <mxCell id="PuY_X1fyGsi5mwH5HdUy-21" value="" style="endArrow=classic;html=1;rounded=0;entryX=0.153;entryY=0.904;entryDx=0;entryDy=0;entryPerimeter=0;" edge="1" parent="1" target="cifkW_QOZoFGIp_55xrW-127">
          <mxGeometry width="50" height="50" relative="1" as="geometry">
            <mxPoint x="1050" y="107.86000000000001" as="sourcePoint" />
            <mxPoint x="1340" y="80" as="targetPoint" />
            <Array as="points">
              <mxPoint x="1050" y="80" />
              <mxPoint x="1220" y="80" />
              <mxPoint x="1220" y="100" />
            </Array>
          </mxGeometry>
        </mxCell>
        <mxCell id="PuY_X1fyGsi5mwH5HdUy-23" value="" style="endArrow=classic;html=1;rounded=0;" edge="1" parent="1">
          <mxGeometry width="50" height="50" relative="1" as="geometry">
            <mxPoint x="1320" y="197.86" as="sourcePoint" />
            <mxPoint x="1391.43" y="195.72000000000003" as="targetPoint" />
          </mxGeometry>
        </mxCell>
        <mxCell id="PuY_X1fyGsi5mwH5HdUy-24" value="&lt;span style=&quot;color: rgb(0, 0, 0); font-family: Helvetica; font-size: 12px; font-style: normal; font-variant-ligatures: normal; font-variant-caps: normal; font-weight: 400; letter-spacing: normal; orphans: 2; text-align: left; text-indent: 0px; text-transform: none; widows: 2; word-spacing: 0px; -webkit-text-stroke-width: 0px; white-space: normal; background-color: rgb(251, 251, 251); text-decoration-thickness: initial; text-decoration-style: initial; text-decoration-color: initial; display: inline !important; float: none;&quot;&gt;0&lt;/span&gt;&lt;div&gt;&lt;span style=&quot;color: rgb(0, 0, 0); font-family: Helvetica; font-size: 12px; font-style: normal; font-variant-ligatures: normal; font-variant-caps: normal; font-weight: 400; letter-spacing: normal; orphans: 2; text-align: left; text-indent: 0px; text-transform: none; widows: 2; word-spacing: 0px; -webkit-text-stroke-width: 0px; white-space: normal; background-color: rgb(251, 251, 251); text-decoration-thickness: initial; text-decoration-style: initial; text-decoration-color: initial; display: inline !important; float: none;&quot;&gt;&lt;br&gt;&lt;/span&gt;&lt;/div&gt;" style="text;whiteSpace=wrap;html=1;" vertex="1" parent="1">
          <mxGeometry x="1320" y="169.29000000000002" width="50" height="40" as="geometry" />
        </mxCell>
        <mxCell id="PuY_X1fyGsi5mwH5HdUy-25" value="" style="endArrow=classic;html=1;rounded=0;entryX=1;entryY=0.5;entryDx=0;entryDy=0;" edge="1" parent="1" target="cifkW_QOZoFGIp_55xrW-127">
          <mxGeometry width="50" height="50" relative="1" as="geometry">
            <mxPoint x="1404" y="250" as="sourcePoint" />
            <mxPoint x="1440" y="217.86" as="targetPoint" />
          </mxGeometry>
        </mxCell>
      </root>
    </mxGraphModel>
  </diagram>
</mxfile>
